dummy_motion.mot										
nRows=135										
nColumns=11										
name dummy_motion.mot										
datacolumns 11										
datarows 135										
range 37.51 38.85										
endheader										
time	pelvis_tilt	pelvis_tx	pelvis_ty	hip_flexion_r	knee_angle_r	ankle_angle_r	hip_flexion_l	knee_angle_l	ankle_angle_l	lumbar_extension
37.51	0	0	0	-18.57873832	7.148483202	6.509704336	-18.57873832	7.148483202	6.509704336	0
37.52	0	0	0	-20.86009633	-52.03967379	-11.49555137	-20.86009633	-52.03967379	-11.49555137	0
37.53	0	0	0	48.04376819	-65.00743312	-48.39803909	48.04376819	-65.00743312	-48.39803909	0
37.54	0	0	0	-39.12674602	-103.6405201	11.84150836	-39.12674602	-103.6405201	11.84150836	0
37.55	0	0	0	-47.41993025	-4.810360886	22.33103925	-47.41993025	-4.810360886	22.33103925	0
37.56	0	0	0	64.51129468	-93.65751638	6.320973801	64.51129468	-93.65751638	6.320973801	0
37.57	0	0	0	9.729325467	8.99386167	-7.031049544	9.729325467	8.99386167	-7.031049544	0
37.58	0	0	0	-42.47040651	-52.39440587	7.740283088	-42.47040651	-52.39440587	7.740283088	0
37.59	0	0	0	29.1072004	-97.19448767	25.66566178	29.1072004	-97.19448767	25.66566178	0
37.6	0	0	0	-37.21479045	-118.5882959	11.40231961	-37.21479045	-118.5882959	11.40231961	0
37.61	0	0	0	-58.02743963	7.089202814	9.072389342	-58.02743963	7.089202814	9.072389342	0
37.62	0	0	0	44.94040338	-6.940405507	12.90863425	44.94040338	-6.940405507	12.90863425	0
37.63	0	0	0	14.95303012	-46.82619131	1.509743613	14.95303012	-46.82619131	1.509743613	0
37.64	0	0	0	49.56163729	-119.4235301	9.715951547	49.56163729	-119.4235301	9.715951547	0
37.65	0	0	0	-15.56136955	-16.07112218	25.2589336	-15.56136955	-16.07112218	25.2589336	0
37.66	0	0	0	65.41489227	-58.99969782	5.179430163	65.41489227	-58.99969782	5.179430163	0
37.67	0	0	0	47.99870489	-100.7050111	-18.16322907	47.99870489	-100.7050111	-18.16322907	0
37.68	0	0	0	-6.177129342	9.31996098	4.009074801	-6.177129342	9.31996098	4.009074801	0
37.69	0	0	0	-2.057422705	3.352135683	17.38563958	-2.057422705	3.352135683	17.38563958	0
37.7	0	0	0	-9.528313592	-46.2630398	2.715384149	-9.528313592	-46.2630398	2.715384149	0
37.71	0	0	0	-40.03712208	-75.31089868	-20.38752562	-40.03712208	-75.31089868	-20.38752562	0
37.72	0	0	0	-17.71040549	-33.52542107	-20.75110697	-17.71040549	-33.52542107	-20.75110697	0
37.73	0	0	0	73.48032258	-112.9458233	-45.0189234	73.48032258	-112.9458233	-45.0189234	0
37.74	0	0	0	-31.48164822	-113.165763	-22.38509772	-31.48164822	-113.165763	-22.38509772	0
37.75	0	0	0	-50.92356908	-38.91360002	-17.42414425	-50.92356908	-38.91360002	-17.42414425	0
37.76	0	0	0	48.48833204	-33.38850057	26.43249214	48.48833204	-33.38850057	26.43249214	0
37.77	0	0	0	28.39386307	-110.9251738	-2.311842976	28.39386307	-110.9251738	-2.311842976	0
37.78	0	0	0	52.15685422	-52.28446521	-38.00482741	52.15685422	-52.28446521	-38.00482741	0
37.79	0	0	0	-0.903645487	-98.45440021	4.94098123	-0.903645487	-98.45440021	4.94098123	0
37.8	0	0	0	13.34766266	-106.2827878	-9.716471835	13.34766266	-106.2827878	-9.716471835	0
37.81	0	0	0	-40.17173594	9.528619973	-20.20505886	-40.17173594	9.528619973	-20.20505886	0
37.82	0	0	0	71.46419443	-46.17071565	-39.24057073	71.46419443	-46.17071565	-39.24057073	0
37.83	0	0	0	64.66346661	-76.88499706	-2.9870052	64.66346661	-76.88499706	-2.9870052	0
37.84	0	0	0	-60.89247699	-86.66790892	3.144715315	-60.89247699	-86.66790892	3.144715315	0
37.85	0	0	0	18.05311686	-114.4473354	37.17738969	18.05311686	-114.4473354	37.17738969	0
37.86	0	0	0	-66.15707327	-7.236110457	34.71259183	-66.15707327	-7.236110457	34.71259183	0
37.87	0	0	0	29.26850426	-50.35851931	-28.92648207	29.26850426	-50.35851931	-28.92648207	0
37.88	0	0	0	-37.5134537	-60.974579	-15.77000596	-37.5134537	-60.974579	-15.77000596	0
37.89	0	0	0	-66.25061955	-43.2653141	-5.134637837	-66.25061955	-43.2653141	-5.134637837	0
37.9	0	0	0	52.58360219	-39.85387406	-3.448756646	52.58360219	-39.85387406	-3.448756646	0
37.91	0	0	0	13.73313373	-6.567229309	3.03447742	13.73313373	-6.567229309	3.03447742	0
37.92	0	0	0	48.19211848	-46.19485012	35.25952411	48.19211848	-46.19485012	35.25952411	0
37.93	0	0	0	-43.3199296	-51.64212589	-29.74274357	-43.3199296	-51.64212589	-29.74274357	0
37.94	0	0	0	-52.55572926	-78.80398096	-3.566274903	-52.55572926	-78.80398096	-3.566274903	0
37.95	0	0	0	38.62266061	-7.587238	35.11314961	38.62266061	-7.587238	35.11314961	0
37.96	0	0	0	-23.64129799	-30.70532349	-37.68605566	-23.64129799	-30.70532349	-37.68605566	0
37.97	0	0	0	77.00703706	-69.2120604	-11.77542618	77.00703706	-69.2120604	-11.77542618	0
37.98	0	0	0	-33.92741043	-88.28171309	-19.37291672	-33.92741043	-88.28171309	-19.37291672	0
37.99	0	0	0	82.8985547	-14.99387386	-35.60461178	82.8985547	-14.99387386	-35.60461178	0
38	0	0	0	44.72327881	-51.09591298	-49.51374781	44.72327881	-51.09591298	-49.51374781	0
38.01	0	0	0	84.80499451	-98.44067719	-26.08251819	84.80499451	-98.44067719	-26.08251819	0
38.02	0	0	0	35.41007325	-62.5752686	-9.162556339	35.41007325	-62.5752686	-9.162556339	0
38.03	0	0	0	6.506426365	-65.05866285	-17.6082703	6.506426365	-65.05866285	-17.6082703	0
38.04	0	0	0	17.34059495	-96.36729615	-19.51869078	17.34059495	-96.36729615	-19.51869078	0
38.05	0	0	0	-3.69544522	-44.7368219	26.59756624	-3.69544522	-44.7368219	26.59756624	0
38.06	0	0	0	15.8306418	-2.980976301	24.22807263	15.8306418	-2.980976301	24.22807263	0
38.07	0	0	0	-63.96740778	-117.6476146	-37.90642893	-63.96740778	-117.6476146	-37.90642893	0
38.08	0	0	0	16.35517823	-56.46854042	17.51258356	16.35517823	-56.46854042	17.51258356	0
38.09	0	0	0	61.17612835	-74.53768601	-13.63656716	61.17612835	-74.53768601	-13.63656716	0
38.1	0	0	0	-29.02172317	2.072894663	0.670139494	-29.02172317	2.072894663	0.670139494	0
38.11	0	0	0	10.46526305	-67.06551429	-23.9297455	10.46526305	-67.06551429	-23.9297455	0
38.12	0	0	0	-56.96755218	-78.30129776	14.52892305	-56.96755218	-78.30129776	14.52892305	0
38.13	0	0	0	41.82555514	-116.097798	-26.3362063	41.82555514	-116.097798	-26.3362063	0
38.14	0	0	0	78.94614957	-89.96583698	-29.81798278	78.94614957	-89.96583698	-29.81798278	0
38.15	0	0	0	61.12434507	-38.44971571	26.04763386	61.12434507	-38.44971571	26.04763386	0
38.16	0	0	0	86.10407274	-1.545316335	34.23514589	86.10407274	-1.545316335	34.23514589	0
38.17	0	0	0	38.34591406	-47.11492329	34.0878365	38.34591406	-47.11492329	34.0878365	0
38.18	0	0	0	6.318632349	-37.70207734	-8.644208265	6.318632349	-37.70207734	-8.644208265	0
38.19	0	0	0	74.78596176	-115.0396307	7.026239926	74.78596176	-115.0396307	7.026239926	0
38.2	0	0	0	-10.02644777	-59.08603792	14.87187902	-10.02644777	-59.08603792	14.87187902	0
38.21	0	0	0	-16.18946947	-106.576343	-30.1348102	-16.18946947	-106.576343	-30.1348102	0
38.22	0	0	0	76.29398107	-70.49597933	27.50729067	76.29398107	-70.49597933	27.50729067	0
38.23	0	0	0	16.09241653	-91.98275622	-35.7609879	16.09241653	-91.98275622	-35.7609879	0
38.24	0	0	0	-67.12831037	-38.25418621	39.66387717	-67.12831037	-38.25418621	39.66387717	0
38.25	0	0	0	40.449825	-44.96764043	19.64448847	40.449825	-44.96764043	19.64448847	0
38.26	0	0	0	31.84443279	-14.84988691	-29.98780003	31.84443279	-14.84988691	-29.98780003	0
38.27	0	0	0	-1.528523088	-94.15076823	3.889075533	-1.528523088	-94.15076823	3.889075533	0
38.28	0	0	0	-44.48257266	-86.19926476	9.276025735	-44.48257266	-86.19926476	9.276025735	0
38.29	0	0	0	59.51881567	-58.90129411	9.493841706	59.51881567	-58.90129411	9.493841706	0
38.3	0	0	0	-38.23555165	-82.73557072	-40.04437998	-38.23555165	-82.73557072	-40.04437998	0
38.31	0	0	0	-66.91513245	-107.98998	-27.32860588	-66.91513245	-107.98998	-27.32860588	0
38.32	0	0	0	81.33147149	-78.67737515	31.48294282	81.33147149	-78.67737515	31.48294282	0
38.33	0	0	0	-65.68946983	-71.43089314	22.4691576	-65.68946983	-71.43089314	22.4691576	0
38.34	0	0	0	-18.14069576	-32.73674097	-35.96172008	-18.14069576	-32.73674097	-35.96172008	0
38.35	0	0	0	-67.41963124	-77.57414097	-36.90630726	-67.41963124	-77.57414097	-36.90630726	0
38.36	0	0	0	12.23363107	-110.8474201	-34.70753317	12.23363107	-110.8474201	-34.70753317	0
38.37	0	0	0	21.51841981	-101.408032	-23.82473219	21.51841981	-101.408032	-23.82473219	0
38.38	0	0	0	63.98281787	-66.51820746	14.03991116	63.98281787	-66.51820746	14.03991116	0
38.39	0	0	0	8.332980835	-101.8904918	36.36243517	8.332980835	-101.8904918	36.36243517	0
38.4	0	0	0	-55.34178617	-47.71126943	-17.27360035	-55.34178617	-47.71126943	-17.27360035	0
38.41	0	0	0	49.51411539	2.255497111	-10.96249178	49.51411539	2.255497111	-10.96249178	0
38.42	0	0	0	33.38512156	-49.79206863	-7.257067571	33.38512156	-49.79206863	-7.257067571	0
38.43	0	0	0	44.64278856	-114.0939493	-40.62830459	44.64278856	-114.0939493	-40.62830459	0
38.44	0	0	0	-28.49039269	-118.691608	15.32252684	-28.49039269	-118.691608	15.32252684	0
38.45	0	0	0	-53.93265499	-18.58538912	22.06144166	-53.93265499	-18.58538912	22.06144166	0
38.46	0	0	0	-67.67054811	-98.39204617	-21.80536567	-67.67054811	-98.39204617	-21.80536567	0
38.47	0	0	0	39.06138693	-69.67705226	14.05677941	39.06138693	-69.67705226	14.05677941	0
38.48	0	0	0	-67.249527	-27.23700483	-49.61521899	-67.249527	-27.23700483	-49.61521899	0
38.49	0	0	0	19.73187893	-107.7976248	17.27656269	19.73187893	-107.7976248	17.27656269	0
38.5	0	0	0	56.97783911	-94.54666767	15.64529254	56.97783911	-94.54666767	15.64529254	0
38.51	0	0	0	38.93443054	-57.4586146	-39.46485431	38.93443054	-57.4586146	-39.46485431	0
38.52	0	0	0	-20.83446106	-68.58367608	21.74181175	-20.83446106	-68.58367608	21.74181175	0
38.53	0	0	0	-15.07585429	-34.12385548	13.61748011	-15.07585429	-34.12385548	13.61748011	0
38.54	0	0	0	65.04841559	-10.43740058	-8.310816388	65.04841559	-10.43740058	-8.310816388	0
38.55	0	0	0	66.93983274	-104.8283195	-34.85269261	66.93983274	-104.8283195	-34.85269261	0
38.56	0	0	0	-43.79290936	-0.09727989	2.05557744	-43.79290936	-0.09727989	2.05557744	0
38.57	0	0	0	43.84437059	-13.41515654	39.38590518	43.84437059	-13.41515654	39.38590518	0
38.58	0	0	0	-46.48453591	-79.1549003	20.67167854	-46.48453591	-79.1549003	20.67167854	0
38.59	0	0	0	-18.54339223	-54.10727042	28.60518148	-18.54339223	-54.10727042	28.60518148	0
38.6	0	0	0	-9.901537641	-58.66278974	-17.30079388	-9.901537641	-58.66278974	-17.30079388	0
38.61	0	0	0	-7.759938647	-25.50991607	16.45804217	-7.759938647	-25.50991607	16.45804217	0
38.62	0	0	0	72.62896192	3.107484555	13.89453349	72.62896192	3.107484555	13.89453349	0
38.63	0	0	0	79.84464906	-63.57483864	-15.4596513	79.84464906	-63.57483864	-15.4596513	0
38.64	0	0	0	-37.14310837	-26.95672897	-21.88308515	-37.14310837	-26.95672897	-21.88308515	0
38.65	0	0	0	-33.7446576	8.725663426	8.470970781	-33.7446576	8.725663426	8.470970781	0
38.66	0	0	0	-7.004466229	-39.10174039	14.54288181	-7.004466229	-39.10174039	14.54288181	0
38.67	0	0	0	3.275729444	-43.7399383	3.747201456	3.275729444	-43.7399383	3.747201456	0
38.68	0	0	0	-33.56091521	-14.69262224	-30.72176802	-33.56091521	-14.69262224	-30.72176802	0
38.69	0	0	0	72.5321618	-103.9322199	-6.2831163	72.5321618	-103.9322199	-6.2831163	0
38.7	0	0	0	3.461226326	6.574096727	-38.56512618	3.461226326	6.574096727	-38.56512618	0
38.71	0	0	0	58.5678176	-5.610875296	-11.22283087	58.5678176	-5.610875296	-11.22283087	0
38.72	0	0	0	18.78441669	-58.46788559	-49.23083399	18.78441669	-58.46788559	-49.23083399	0
38.73	0	0	0	13.6266504	-94.73818201	2.504215181	13.6266504	-94.73818201	2.504215181	0
38.74	0	0	0	-26.16997086	-49.75558321	33.36506098	-26.16997086	-49.75558321	33.36506098	0
38.75	0	0	0	-60.61547915	-15.23936915	-29.00567327	-60.61547915	-15.23936915	-29.00567327	0
38.76	0	0	0	84.6834977	-27.42922147	-40.31311927	84.6834977	-27.42922147	-40.31311927	0
38.77	0	0	0	-43.2631721	1.727254057	24.56422944	-43.2631721	1.727254057	24.56422944	0
38.78	0	0	0	-28.57358782	-17.27393567	-0.255942854	-28.57358782	-17.27393567	-0.255942854	0
38.79	0	0	0	-38.29611216	-45.59008836	-16.02524982	-38.29611216	-45.59008836	-16.02524982	0
38.8	0	0	0	-50.21809125	-99.15169475	-15.10655651	-50.21809125	-99.15169475	-15.10655651	0
38.81	0	0	0	-22.11286529	-4.240469606	-27.51087897	-22.11286529	-4.240469606	-27.51087897	0
38.82	0	0	0	17.81575349	-68.03561278	11.57005322	17.81575349	-68.03561278	11.57005322	0
38.83	0	0	0	-25.5070943	-67.42927778	26.56109426	-25.5070943	-67.42927778	26.56109426	0
38.84	0	0	0	-60.65331803	-0.968704058	-26.31873717	-60.65331803	-0.968704058	-26.31873717	0
38.85	0	0	0	33.49575511	-69.52591536	-48.0504184	33.49575511	-69.52591536	-48.0504184	0
